<svg width="1252" height="290" viewBox="0 0 1252 290" fill="none" xmlns="http://www.w3.org/2000/svg">
<path d="M325.635 228.916H383.979V282.504H325.635V228.916Z" fill="#FDFFDF"/>
<path d="M850.931 127.254H909.275V180.841H850.931V127.254Z" fill="#FDFFDF"/>
<path d="M1096.88 94.1561H1181.25V144.591H1096.88V94.1561Z" fill="#FDFFDF"/>
<path d="M850.931 195.819H909.275V282.504H850.931V195.819Z" fill="#FDFFDF"/>
<path d="M507.755 255.71C507.755 240.912 519.757 228.916 534.562 228.916H539.292C554.097 228.916 566.099 240.912 566.099 255.71C566.099 270.508 554.097 282.504 539.292 282.504H534.562C519.757 282.504 507.755 270.508 507.755 255.71Z" fill="#FDFFDF"/>
<path d="M674.862 187.382V6.4209H730.956V282.502H679.504L565.382 103.087V215.517H509.288V6.4209H561.125L674.862 187.382Z" fill="#FDFFDF"/>
<path d="M1084.88 282.502H1027.24V6.4209H1084.88V282.502Z" fill="#FDFFDF"/>
<path d="M1252 282.502H1194.36V6.4209H1252V282.502Z" fill="#FDFFDF"/>
<path d="M354.457 118.167L415.967 6.4209H477.091L383.858 169.981V215.124H326.217V169.981L230.663 6.4209H294.881L354.457 118.167Z" fill="#FDFFDF"/>
<path d="M991.214 56.3004H908.038V110.707H850.01V56.3004H766.837V6.4209H991.214V56.3004Z" fill="#FDFFDF"/>
<path d="M112.188 0C132.305 4.0033e-06 149.069 2.32014 162.48 6.96015C175.891 11.6002 186.723 17.7872 194.976 25.5206C203.229 32.996 209.29 41.7608 213.158 51.8139C217.284 61.867 219.993 72.3067 221.282 83.133L166.735 90.0932C163.898 74.8846 158.353 63.9291 150.1 57.2269C142.105 50.5246 129.855 47.1738 113.349 47.1738C103.549 47.1738 95.4241 48.0751 88.9765 49.8795C82.7869 51.4262 77.7574 53.6185 73.8889 56.454C70.0207 59.0317 67.3136 62.1256 65.7663 65.7342C64.219 69.343 63.4451 73.0807 63.4451 76.9473C63.4452 87.2579 66.2816 94.9907 71.9551 100.146C77.8868 105.302 87.8163 109.298 101.743 112.134L139.655 119.481C169.572 125.41 191.493 135.076 205.42 148.48C219.347 161.627 226.31 180.703 226.311 205.707C226.311 217.823 223.989 229.037 219.347 239.348C214.963 249.401 208.257 258.294 199.231 266.027C190.462 273.502 179.372 279.303 165.961 283.427C152.55 287.809 136.818 290 118.765 290C81.1107 290 52.2256 282.009 32.1092 266.027C12.2507 249.787 1.54742 225.427 0 192.947H58.4154C59.7049 209.96 65.1212 222.334 74.6636 230.067C84.4639 237.801 98.7773 241.668 117.604 241.668C126.63 241.668 134.239 240.765 140.428 238.96C146.618 236.898 151.648 234.321 155.516 231.227C159.385 227.876 162.093 224.009 163.64 219.627C165.445 215.245 166.349 210.477 166.349 205.321C166.349 198.104 163.641 191.4 158.225 185.214C152.809 178.769 142.879 174.129 128.437 171.293L92.4583 164.72C78.2738 162.143 65.7655 158.792 54.9336 154.667C44.1017 150.543 34.946 145.259 27.4668 138.814C20.2456 132.112 14.7013 123.991 10.8327 114.454C6.96419 104.916 5.0298 93.5739 5.02975 80.4274C5.02975 67.2807 7.60842 55.68 12.7665 45.6266C18.1825 35.5733 25.5333 27.1954 34.8177 20.4933C44.3601 13.7912 55.7078 8.76399 68.8607 5.41293C82.0137 1.8041 96.4564 0 112.188 0Z" fill="#FDFFDF"/>
</svg>
